<?xml version="1.0" standalone="no"?>
<!DOCTYPE svg PUBLIC "-//W3C//DTD SVG 20010904//EN"
 "http://www.w3.org/TR/2001/REC-SVG-20010904/DTD/svg10.dtd">
<svg version="1.0" xmlns="http://www.w3.org/2000/svg"
 width="400.000000pt" height="400.000000pt" viewBox="0 0 400.000000 400.000000"
 preserveAspectRatio="xMidYMid meet">
<metadata>
Created by potrace 1.14, written by Peter Selinger 2001-2017
</metadata>
<g transform="translate(0.000000,400.000000) scale(0.100000,-0.100000)"
fill="#000000" stroke="none">
<path d="M2828 3326 c-118 -32 -168 -110 -168 -263 l0 -73 -75 0 -75 0 0 -85
0 -85 75 0 75 0 0 -380 0 -380 100 0 100 0 0 380 0 380 105 0 105 0 0 85 0 85
-105 0 -105 0 0 60 c0 51 4 64 28 92 28 30 33 32 115 36 l87 5 0 78 0 79 -107
-1 c-60 0 -129 -6 -155 -13z"/>
<path d="M1353 2996 c-65 -21 -111 -54 -138 -99 l-25 -42 0 68 0 68 -102 -3
-103 -3 -3 -462 -2 -463 105 0 105 0 0 313 c0 283 2 316 19 353 59 129 246
138 309 14 21 -43 22 -52 22 -362 l0 -318 99 0 100 0 3 323 3 324 28 42 c70
105 236 107 295 2 21 -38 22 -48 22 -365 l0 -326 106 0 105 0 -3 368 -3 367
-28 57 c-52 107 -133 152 -272 152 -73 0 -100 -4 -140 -22 -57 -26 -118 -82
-136 -123 l-11 -29 -20 40 c-23 46 -77 96 -126 117 -50 21 -159 26 -209 9z"/>
<path d="M1127 1813 c-4 -3 -7 -55 -7 -115 l0 -108 -70 0 -70 0 0 -85 0 -85
69 0 69 0 4 -302 c3 -296 4 -304 27 -351 41 -84 120 -117 275 -117 117 0 116
-1 116 91 l0 79 -64 0 c-34 0 -76 5 -92 10 -57 20 -59 30 -62 323 l-3 267 105
0 106 0 0 85 0 85 -105 0 -105 0 0 115 0 115 -93 0 c-52 0 -97 -3 -100 -7z"/>
<path d="M1983 1600 c-115 -24 -216 -102 -241 -188 -18 -59 -15 -151 7 -197
39 -85 120 -130 306 -170 181 -39 227 -75 204 -159 -15 -55 -59 -80 -148 -85
-41 -2 -91 2 -112 8 -41 12 -89 62 -89 92 0 17 -8 19 -101 19 l-102 0 7 -47
c9 -70 52 -132 116 -171 70 -41 105 -51 211 -59 150 -10 302 40 363 120 76
100 75 259 -2 340 -52 55 -106 75 -335 122 -87 18 -132 48 -142 95 -9 39 12
79 55 108 31 21 44 23 112 20 88 -4 122 -22 151 -81 l19 -37 90 0 91 0 -7 43
c-16 102 -83 176 -191 212 -58 20 -202 28 -262 15z"/>
<path d="M2755 916 c-54 -24 -78 -60 -82 -124 -5 -69 16 -110 70 -135 103 -49
207 14 207 126 0 63 -23 102 -75 127 -48 23 -78 25 -120 6z"/>
</g>
</svg>
