<?xml version="1.0" encoding="utf-8"?>
<!-- Svg Vector Icons : http://www.onlinewebfonts.com/icon -->
<!DOCTYPE svg PUBLIC "-//W3C//DTD SVG 1.1//EN" "http://www.w3.org/Graphics/SVG/1.1/DTD/svg11.dtd">
<svg version="1.1" xmlns="http://www.w3.org/2000/svg" xmlns:xlink="http://www.w3.org/1999/xlink" x="0px" y="0px" viewBox="0 0 1000 1000" enable-background="new 0 0 1000 1000" xml:space="preserve">
<metadata> Svg Vector Icons : http://www.onlinewebfonts.com/icon </metadata>
<g><path d="M651.1,932.8c-4.1-4.1-53.1-28.6-110.3-28.6c-57.2,0-106.2,24.5-110.3,28.6c-16.3,12.3-16.3,32.7-4.1,44.9c12.2,12.2,32.7,16.3,49,4.1c8.2-8.2,36.7-32.7,65.3-32.7c28.6,0,57.2,28.6,65.3,32.7c8.2,4.1,16.3,8.2,24.5,8.2c8.2,0,20.4-4.1,28.6-12.2C667.4,965.5,667.4,945.1,651.1,932.8z"/><path d="M753.2,10c29.3,0,53.1,23.8,53.1,53.1c0,29.3-23.8,53.1-53.1,53.1c-29.3,0-53.1-23.8-53.1-53.1C700.1,33.8,723.9,10,753.2,10z"/><path d="M658.2,52.6c30.8-14,67.1-0.4,81.1,30.4c14,30.8,0.4,67.1-30.4,81.1c-30.8,14-67.2,0.4-81.1-30.4C613.8,103,627.4,66.6,658.2,52.6z"/><path d="M849,53.1c21.7,11.9,29.7,39.3,17.7,61c-12,21.8-39.2,29.7-61,17.7C784,119.9,776,92.5,788,70.8C799.9,49.1,827.3,41.1,849,53.1z"/><path d="M528.6,834.8c-20.4-4.1-36.8,12.2-36.8,20.4c0,53.1-36.7,65.3-36.7,65.3c-4.1,20.4,12.3,16.3,32.7,24.5c4.1,0,8.2-4.1,12.2-4.1c16.3,0,57.2-12.2,65.3-32.7c0,0-32.7-32.7-16.3-77.6C553.1,818.5,553.1,838.9,528.6,834.8z"/><path d="M908.3,210.1c0-53.1-49-118.4-122.5-118.4c-191.9,0-110.3,326.7-367.5,326.7c-236.8,0-351.2-93.9-367.5-134.7c0,61.3,40.8,167.4,89.8,179.7c-28.6,0-53.1,8.2-73.5,32.7c28.6,4.1,44.9,12.3,61.3,32.7c-32.7,8.2-49,24.5-61.3,40.8c98,12.2,85.8,216.4,310.3,216.4c224.6,0,245-204.2,245-204.2s40.8,285.8-285.8,285.8c0,0,65.3,40.8,167.4,40.8c114.3,0,363.4-122.5,363.4-326.7c0-98-40.8-147-40.8-216.4c0-36.8,36.8-53.1,57.2-81.7c4.1,0,36.7-4.1,65.3,12.2C949.2,234.6,908.3,222.3,908.3,210.1z M806.2,218.3c-12.2,0-24.5-12.3-24.5-24.5s12.2-24.5,24.5-24.5s24.5,12.3,24.5,24.5S818.5,218.3,806.2,218.3z"/></g>
</svg>